<?xml version="1.0" standalone="no"?>
<!DOCTYPE svg PUBLIC "-//W3C//DTD SVG 20010904//EN"
 "http://www.w3.org/TR/2001/REC-SVG-20010904/DTD/svg10.dtd">
<svg version="1.0" xmlns="http://www.w3.org/2000/svg"
 width="512.000000pt" height="512.000000pt" viewBox="0 0 512.000000 512.000000"
 preserveAspectRatio="xMidYMid meet">
<metadata>
Created by potrace 1.11, written by Peter Selinger 2001-2013
</metadata>
<g transform="translate(0.000000,512.000000) scale(0.100000,-0.100000)"
fill="#000000" stroke="none">
<path d="M3125 4936 c-103 -16 -170 -39 -230 -77 l-48 -31 -41 19 c-26 11 -64
18 -107 18 -56 0 -73 -5 -115 -30 -169 -105 -143 -354 43 -421 21 -7 52 -13
69 -14 31 0 31 -1 47 -81 16 -84 70 -210 113 -266 13 -17 24 -35 24 -38 0 -4
-16 -31 -36 -61 -43 -65 -121 -124 -135 -103 -18 29 -30 120 -23 178 12 111
-49 210 -123 198 -53 -9 -100 -44 -122 -91 -36 -73 -22 -163 36 -223 29 -31
37 -35 73 -31 37 3 41 1 46 -22 3 -14 10 -37 16 -52 9 -25 6 -32 -32 -75 -57
-66 -125 -170 -159 -245 -40 -89 -65 -173 -57 -193 6 -16 8 -16 24 -2 10 9 70
88 133 176 63 88 116 153 117 144 2 -8 -1 -100 -7 -204 -6 -105 -9 -195 -6
-200 13 -20 27 -7 51 48 44 99 64 199 71 346 l6 138 43 29 44 29 24 -24 c46
-46 139 -27 203 41 l34 36 64 -17 65 -18 0 -203 0 -204 -220 0 -220 0 0 -78 0
-78 290 -300 290 -299 -290 -3 -290 -2 0 -60 0 -60 320 0 c201 0 320 -4 320
-10 0 -5 -144 -453 -320 -995 l-321 -987 3 -145 3 -145 1133 1167 c622 641
1132 1171 1132 1176 0 5 -176 190 -392 412 l-392 402 -113 3 c-62 1 -113 5
-113 8 0 2 8 17 18 31 15 24 18 63 22 309 5 304 7 314 60 314 48 0 60 -26 60
-129 0 -84 2 -94 25 -116 31 -32 50 -31 82 1 25 25 25 28 21 127 -6 136 -33
185 -120 222 -87 36 -188 -2 -236 -90 -14 -25 -17 -72 -20 -305 -2 -179 -7
-279 -14 -288 -6 -7 -23 -12 -37 -10 -25 3 -26 7 -33 78 -7 87 -26 144 -67
203 -31 45 -108 121 -132 129 -10 4 4 22 43 57 109 99 191 253 213 404 7 43
10 47 35 47 39 0 108 26 146 55 46 35 84 117 84 179 0 173 -183 286 -342 211
-34 -17 -36 -17 -75 9 -22 15 -64 36 -93 47 -119 45 -390 62 -565 35z m-372
-226 c34 -27 44 -78 23 -118 -30 -58 -94 -70 -145 -26 -26 21 -31 33 -31 69 0
36 5 48 31 69 37 32 86 34 122 6z m1270 -6 c42 -42 42 -97 0 -139 -46 -46
-127 -27 -153 35 -38 92 83 174 153 104z m-803 -54 c47 -24 91 -76 107 -127 7
-23 12 -30 12 -17 1 32 55 109 93 132 100 62 231 23 279 -83 36 -79 20 -163
-42 -222 -42 -39 -77 -53 -135 -53 -24 0 -44 -2 -44 -5 0 -3 9 -23 20 -45 49
-95 5 -215 -95 -261 -164 -76 -330 94 -255 260 11 24 20 45 20 47 0 2 -20 4
-45 4 -140 0 -235 148 -176 275 47 102 164 145 261 95z m-591 -453 c8 -7 23
-32 34 -56 16 -36 18 -56 13 -110 -7 -71 6 -156 29 -187 13 -18 15 -18 56 11
39 27 93 88 118 133 8 14 15 11 54 -25 24 -22 54 -46 66 -52 11 -7 21 -18 21
-25 0 -19 -45 -46 -86 -53 -29 -5 -34 -3 -34 14 0 10 9 36 20 58 11 21 18 41
16 43 -7 7 -46 -76 -46 -97 0 -11 5 -23 11 -26 18 -12 78 5 109 31 20 17 36
23 50 19 28 -9 25 -26 -12 -62 -65 -63 -141 -71 -183 -22 l-26 32 -27 -25
c-15 -14 -37 -32 -49 -40 -21 -14 -23 -23 -26 -149 -3 -82 -11 -159 -21 -199
-24 -94 -66 -200 -78 -200 -7 0 -8 23 -4 68 3 37 9 139 12 227 7 160 7 160
-13 135 -11 -14 -70 -96 -133 -183 -62 -87 -117 -160 -123 -164 -17 -10 -1 58
33 143 38 95 104 203 171 282 36 41 48 62 43 77 -3 11 -10 39 -15 61 -10 41
-11 42 -48 37 -108 -15 -172 168 -94 265 46 57 119 74 162 39z m1916 -1244
l289 -298 -292 -3 c-161 -1 -424 -1 -585 0 l-292 3 289 298 c160 163 293 297
296 297 3 0 136 -134 295 -297z m163 -553 c-228 -240 -1773 -1828 -1776 -1825
-1 1 56 182 128 401 71 219 214 659 317 977 l187 577 634 0 634 0 -124 -130z"/>
<path d="M3182 4498 c-29 -29 7 -86 47 -73 26 8 38 50 21 70 -15 18 -51 20
-68 3z"/>
<path d="M3422 4498 c-29 -29 7 -86 47 -73 26 8 38 50 21 70 -15 18 -51 20
-68 3z"/>
<path d="M3330 4440 c0 -9 -9 -33 -20 -55 -11 -22 -20 -41 -20 -42 0 -2 20 -3
45 -3 25 0 45 2 45 4 0 2 -11 28 -25 58 -14 29 -25 46 -25 38z"/>
<path d="M3226 4244 c-21 -21 -20 -57 2 -77 24 -22 55 -21 75 1 34 37 11 92
-38 92 -13 0 -31 -7 -39 -16z"/>
<path d="M2516 4129 c-43 -34 -32 -123 21 -172 19 -16 20 -16 36 1 33 36 42
145 14 180 -14 18 -41 15 -71 -9z m69 1 c11 -17 7 -110 -5 -141 -16 -38 -36
-37 -60 4 -26 42 -26 101 0 127 21 21 55 26 65 10z"/>
<path d="M446 3016 c-214 -222 -388 -406 -388 -410 1 -4 506 -535 1124 -1181
l1123 -1173 3 149 3 150 -314 967 c-173 532 -317 977 -321 990 l-7 22 315 0
316 0 0 65 0 65 -282 0 -283 0 288 288 287 287 0 93 0 92 -738 0 -738 0 -388
-404z m1506 37 c-121 -126 -252 -259 -291 -298 l-71 -69 -31 29 c-17 17 -148
150 -291 298 l-260 267 582 0 582 0 -220 -227z m-558 -350 l38 -43 -582 0
-582 0 293 301 293 300 251 -258 c138 -142 268 -277 289 -300z"/>
<path d="M2520 3270 l0 -90 30 0 30 0 0 90 0 90 -30 0 -30 0 0 -90z"/>
<path d="M2520 2910 l0 -90 30 0 30 0 0 90 0 90 -30 0 -30 0 0 -90z"/>
<path d="M2520 2545 l0 -95 30 0 30 0 0 95 0 95 -30 0 -30 0 0 -95z"/>
<path d="M2520 2180 l0 -90 30 0 30 0 0 90 0 90 -30 0 -30 0 0 -90z"/>
<path d="M2520 1820 l0 -90 30 0 30 0 0 90 0 90 -30 0 -30 0 0 -90z"/>
<path d="M2520 1450 l0 -90 30 0 30 0 0 90 0 90 -30 0 -30 0 0 -90z"/>
<path d="M2520 1090 l0 -90 30 0 30 0 0 90 0 90 -30 0 -30 0 0 -90z"/>
<path d="M2520 730 l0 -90 30 0 30 0 0 90 0 90 -30 0 -30 0 0 -90z"/>
<path d="M2520 370 l0 -90 30 0 30 0 0 90 0 90 -30 0 -30 0 0 -90z"/>
<path d="M2520 45 c0 -43 1 -45 30 -45 29 0 30 2 30 45 0 43 -1 45 -30 45 -29
0 -30 -2 -30 -45z"/>
</g>
</svg>
